<?xml version="1.0" encoding="UTF-8"?>
<svg id="Layer_1" xmlns="http://www.w3.org/2000/svg" version="1.1" viewBox="0 0 2000 1180.94323">
  <!-- Generator: Adobe Illustrator 30.0.0, SVG Export Plug-In . SVG Version: 2.1.1 Build 123)  -->
  <defs>
    <style>
      .st0 {
        fill: #b33;
      }

      .st0, .st1, .st2 {
        fill-rule: evenodd;
      }

      .st1, .st3 {
        fill: #dcdddf;
      }

      .st2 {
        fill: #7b818b;
      }
    </style>
  </defs>
  <path class="st1" d="M100.14055,945.50244v-.31128c0-7.65985-1.39731-14.77434-4.19204-21.34647-2.79479-6.57371-6.75337-12.29129-11.87721-17.15584-5.12339-4.86518-11.22939-8.66834-18.31862-11.41159-7.09081-2.74336-14.87872-4.11439-23.36696-4.11439H.00096v108.67807h42.38477c8.48823,0,16.27615-1.39734,23.36696-4.19204,7.08923-2.79428,13.19523-6.62316,18.31862-11.48822,5.12384-4.86456,9.08242-10.60949,11.87721-17.2331,2.79473-6.62519,4.19204-13.76738,4.19204-21.42514h0ZM75.14481,945.81265c0,4.86456-.80318,9.26349-2.4058,13.19687-1.60415,3.93179-3.83041,7.34806-6.67656,10.24667-2.84565,2.8977-6.28775,5.12345-10.3255,6.67509-4.03623,1.55278-8.48665,2.3286-13.35121,2.3286h-18.47505v-65.51646h18.47505c4.86456,0,9.31498.80159,13.35121,2.40574,4.03776,1.60472,7.47985,3.85612,10.3255,6.75382,2.84616,2.89922,5.07241,6.36642,6.67656,10.40265,1.60262,4.03566,2.4058,8.43517,2.4058,13.19681v.31021h0ZM146.4067,999.84094v-108.67807h-23.90763v108.67807h23.90763ZM272.319,984.47091v-47.19792h-47.19784v20.64943h24.06558v15.62878c-6.10606,4.37328-13.61162,6.57173-22.51235,6.57173-4.86506,0-9.28972-.85257-13.27452-2.56167-3.98475-1.70718-7.45199-4.14022-10.40265-7.24464-2.94856-3.10448-5.22625-6.75388-6.83045-10.97118-1.60472-4.1921-2.40574-8.79844-2.40574-13.76579v-.30981c0-4.65766.80103-9.0566,2.40574-13.14584,1.60421-4.11501,3.83046-7.68511,6.67668-10.73811,2.84565-3.05351,6.15748-5.51226,9.93488-7.32388,3.77949-1.80992,7.84098-2.71595,12.18849-2.71595,3.10494,0,5.95059.25878,8.53802.77582,2.58902.51699,4.99527,1.2415,7.22102,2.17274,2.22467.93175,4.37164,2.07033,6.44192,3.41616,2.07039,1.34605,4.14067,2.89928,6.21106,4.65783l15.0603-18.16479c-2.79467-2.38014-5.69396-4.50185-8.69553-6.36489-3.00202-1.86298-6.20885-3.41576-9.62513-4.65721-3.41627-1.24353-7.11703-2.20054-11.10133-2.87345-3.9848-.67139-8.4094-1.009-13.27452-1.009-8.27924,0-15.8871,1.47456-22.82262,4.42527-6.93489,2.95014-12.93639,6.98632-18.00887,12.10971-5.07191,5.12328-9.03094,11.0755-11.87664,17.85458-2.84774,6.77953-4.27082,14.04983-4.27082,21.81361v.31021c0,8.07353,1.39737,15.52598,4.19159,22.35643,2.79473,6.8304,6.70233,12.73125,11.72332,17.69869,5.0189,4.96798,11.02204,8.84987,18.00892,11.64409,6.98637,2.79476,14.72286,4.19212,23.21104,4.19212,9.93488,0,18.75903-1.68138,26.47139-5.04625,7.71077-3.3632,14.36004-7.4267,19.94905-12.18682h0ZM320.29272,999.84094v-108.67807h-23.90808v108.67807h23.90808ZM429.74938,913.20899v-22.04611h-90.04834v22.04611h33.06934v86.63195h23.90757v-86.63195h33.07143ZM553.95241,999.84094l-46.5763-109.454h-22.04679l-46.57635,109.454h24.37539l9.93482-24.37579h45.95702l9.93703,24.37579h24.99518ZM510.48048,954.35226h-28.87758l14.43876-35.244,14.43882,35.244h0ZM648.81438,999.84094v-21.58106h-54.18484v-87.09701h-23.90966v108.67807h78.0945ZM795.68557,913.20899v-22.04611h-90.04817v22.04611h33.06917v86.63195h23.90814v-86.63195h33.07086ZM907.93504,999.84094l-26.5487-38.81416c6.93336-2.58738,12.54814-6.64882,16.84456-12.18685,4.29461-5.53747,6.44361-12.70548,6.44361-21.50183v-.31173c0-11.28093-3.59723-20.07931-10.79112-26.39266-7.19367-6.31341-17.25926-9.47084-30.19769-9.47084h-49.68101v108.67807h23.90972v-34.77634h18.7848l23.28976,34.77634h27.94606ZM880.45522,928.57961c0,4.65721-1.579,8.38368-4.73644,11.17796-3.15608,2.79479-7.68568,4.1921-13.58438,4.1921h-24.21998v-31.20624h23.75385c5.89927,0,10.5055,1.29287,13.81733,3.88025,3.31172,2.58902,4.96962,6.46933,4.96962,11.64573v.31021h0ZM1019.25237,952.48927v-61.3264h-23.90961v62.25763c0,8.69344-2.07033,15.21419-6.21055,19.56221-4.14067,4.34593-9.88385,6.5207-17.23361,6.5207-7.34739,0-13.09237-2.25191-17.23293-6.75376-4.14078-4.50337-6.21112-11.20577-6.21112-20.10655v-61.48023h-23.90814v62.10177c0,16.04303,4.1921,28.10176,12.57584,36.17377,8.38374,8.07345,19.87191,12.10965,34.46665,12.10965,7.2451,0,13.81688-1.00844,19.71807-3.02731,5.89882-2.0173,10.91771-5.0703,15.05827-9.15956,4.14078-4.08924,7.32388-9.1848,9.54804-15.29289,2.22631-6.10656,3.33907-13.30023,3.33907-21.57902h0ZM1122.18686,967.70352v-.31026c0-4.76221-.75231-8.84941-2.25208-12.26557-1.50169-3.41638-3.75174-6.39219-6.70222-8.92656-2.95026-2.53595-6.59744-4.71072-10.89398-6.52076-4.2945-1.8115-9.2111-3.44148-14.72292-4.89027-4.65777-1.24308-8.51383-2.3286-11.59306-3.26041-3.05311-.93124-5.45891-1.91594-7.24476-2.95009-1.75838-1.03618-2.97625-2.20054-3.64922-3.49341-.67105-1.29451-1.00844-2.82044-1.00844-4.58057v-.3097c0-2.69188,1.16419-4.94226,3.49279-6.75388,2.32917-1.8115,5.82264-2.71753,10.47996-2.71753,4.65766,0,9.31532.9574,13.9732,2.87193,4.65766,1.91599,9.41987,4.52915,14.28278,7.84041l12.42155-18.00847c-5.58946-4.45031-11.72338-7.86664-18.39791-10.24667-6.67656-2.3806-13.99829-3.57219-21.96959-3.57219-5.58935,0-10.71279.77741-15.34276,2.32866-4.63189,1.55329-8.64393,3.77949-11.98153,6.67656-3.3376,2.89928-5.92504,6.33912-7.78797,10.32392-1.83727,3.98638-2.76907,8.46241-2.76907,13.42993v.31173c0,5.38166.85302,9.88345,2.56223,13.50713,1.70706,3.62153,4.13875,6.64876,7.24476,9.08237,3.10431,2.43157,6.90963,4.47614,11.35999,6.13177,4.47625,1.65569,9.4436,3.15597,14.95598,4.50191,4.55266,1.13859,8.27919,2.2262,11.12704,3.26029,2.84571,1.03568,5.06976,2.07033,6.7003,3.10601,1.60409,1.03415,2.69176,2.14753,3.26029,3.3376.57011,1.19007.8546,2.56167.8546,4.1149v.3097c0,3.20903-1.37171,5.71922-4.1149,7.52925-2.74138,1.8115-6.59801,2.71753-11.56548,2.71753-6.21089,0-11.92807-1.19007-17.1563-3.5701-5.22585-2.38218-10.32409-5.58895-15.29303-9.62671l-14.12703,16.92278c6.5207,5.89919,13.76579,10.27247,21.73495,13.11865,7.9696,2.84774,16.09451,4.27034,24.37585,4.27034,5.89916,0,11.28076-.75175,16.12017-2.25146,4.83884-1.50022,9.03094-3.67502,12.52429-6.52073,3.49302-2.84619,6.21066-6.36486,8.17645-10.55642,1.94013-4.19215,2.92505-8.98002,2.92505-14.36162h0ZM1225.27643,913.20899v-22.04611h-90.04873v22.04611h33.0694v86.63195h23.90802v-86.63195h33.07132ZM1385.65323,982.29769l-15.21413-15.37011c-4.24341,3.93179-8.5144,7.0378-12.8089,9.31554-4.29597,2.27559-9.54793,3.41412-15.75904,3.41412-4.65721,0-8.9265-.90603-12.80845-2.7155-3.88183-1.81206-7.19367-4.27088-9.93697-7.37525-2.74104-3.10448-4.89027-6.72816-6.44147-10.86826-1.55312-4.14067-2.32917-8.53802-2.32917-13.19579v-.31128c0-4.65777.77605-9.03156,2.32917-13.11871,1.5512-4.08924,3.72597-7.685,6.5207-10.79101,2.79428-3.10443,6.13177-5.536,10.01383-7.29664,3.88014-1.75849,8.0997-2.63875,12.65236-2.63875,5.48672,0,10.4283,1.08552,14.82781,3.26035,4.39894,2.17325,8.71909,5.17482,12.96431,9.00522l15.21413-17.54494c-2.48436-2.48441-5.17476-4.76-8.07336-6.83034-2.89781-2.07033-6.05525-3.83052-9.46983-5.27931-3.41582-1.44834-7.21899-2.58738-11.41108-3.41621-4.19379-.82686-8.82364-1.24156-13.89612-1.24156-8.38363,0-16.04297,1.47456-22.9778,4.42527-6.93551,2.95014-12.88564,6.98632-17.85526,12.10971-4.96724,5.12328-8.8493,11.0755-11.64403,17.85458-2.79473,6.77953-4.1921,14.04983-4.1921,21.81361v.31021c0,7.76225,1.39737,15.05985,4.1921,21.89087,2.79473,6.8304,6.67679,12.75685,11.64403,17.7758,4.96962,5.02045,10.86832,8.97954,17.69928,11.87662,6.83254,2.89925,14.23305,4.34805,22.20254,4.34805,5.27716,0,10.03937-.44044,14.28301-1.32022,4.24307-.87874,8.15056-2.17322,11.72293-3.88031,3.56988-1.70921,6.85605-3.75168,9.85762-6.13383,3.00214-2.38012,5.89927-5.06984,8.69389-8.07192h0ZM1510.63372,999.84094l-46.57635-109.454h-22.04668l-46.57635,109.454h24.37528l9.93561-24.37579h45.95628l9.93697,24.37579h24.99524ZM1467.1619,954.35226h-28.87719l14.43831-35.244,14.43888,35.244h0ZM1623.97029,999.84094v-108.67807h-23.59799v66.91541l-50.92432-66.91541h-22.04679v108.67807h23.59844v-69.08859l52.63307,69.08859h20.33758ZM1755.9375,999.84094l-46.57613-109.454h-22.04679l-46.57635,109.454h24.37517l9.93494-24.37579h45.95696l9.9372,24.37579h24.99501ZM1712.46579,954.35226h-28.87775l14.43888-35.244,14.43888,35.244h0ZM1872.84462,945.50244v-.31128c0-7.65985-1.39748-14.77434-4.19221-21.34647-2.79473-6.57371-6.75365-12.29129-11.87721-17.15584-5.12333-4.86518-11.22933-8.66834-18.31822-11.41159-7.09093-2.74336-14.87901-4.11439-23.36696-4.11439h-42.38505v108.67807h42.38505c8.48795,0,16.27603-1.39734,23.36696-4.19204,7.08889-2.79428,13.19489-6.62316,18.31822-11.48822,5.12356-4.86456,9.08248-10.60949,11.87721-17.2331,2.79473-6.62519,4.19221-13.76738,4.19221-21.42514h0ZM1847.84871,945.81265c0,4.86456-.80295,9.26349-2.40569,13.19687-1.60409,3.93179-3.83052,7.34806-6.67634,10.24667-2.84605,2.8977-6.28797,5.12345-10.32579,6.67509-4.036,1.55278-8.48659,2.3286-13.35087,2.3286h-18.47533v-65.51646h18.47533c4.86427,0,9.31486.80159,13.35087,2.40574,4.03781,1.60472,7.47974,3.85612,10.32579,6.75382,2.84582,2.89922,5.07224,6.36642,6.67634,10.40265,1.60274,4.03566,2.40569,8.43517,2.40569,13.19681v.31021h0ZM2000,999.84094l-46.57635-109.454h-22.04679l-46.57658,109.454h24.37562l9.93471-24.37579h45.95674l9.9372,24.37579h24.99547ZM1956.52785,954.35226h-28.8773l14.43865-35.244,14.43865,35.244h0Z"/>
  <path class="st1" d="M72.16426,1166.04037l-10.89867-11.01051c-3.03938,2.81683-6.09871,5.04201-9.17533,6.67346-3.0777,1.62998-6.83995,2.44576-11.28873,2.44576-3.33647,0-6.39473-.64884-9.17584-1.94538-2.7806-1.29767-5.15278-3.05939-7.11811-5.28355-1.96381-2.22366-3.50347-4.8194-4.61471-7.78526-1.11231-2.96594-1.66829-6.116-1.66829-9.45248v-.22363c0-3.33647.55598-6.4693,1.66829-9.3974,1.11123-2.92912,2.66927-5.50497,4.67133-7.73018,2.00167-2.22363,4.39272-3.96587,7.17332-5.22675,2.77947-1.25984,5.80207-1.89028,9.064-1.89028,3.93021,0,7.47036.77794,10.62152,2.33541,3.15116,1.55696,6.24621,3.70709,9.28712,6.45144l10.89861-12.56849c-1.77991-1.78005-3.70704-3.41-5.78364-4.89293-2.07559-1.48346-4.33756-2.74435-6.78315-3.78214-2.44728-1.03779-5.17165-1.85355-8.17481-2.44723-3.00423-.59215-6.32075-.88925-9.95438-.88925-6.0058,0-11.49235,1.05616-16.46033,3.16953-4.96798,2.11391-9.23049,5.00474-12.79059,8.67507-3.55846,3.67033-6.33906,7.93386-8.34124,12.79053-2.00156,4.85616-3.00259,10.06455-3.00259,15.62629v.22202c0,5.5601,1.00103,10.78844,3.00259,15.68142,2.00218,4.89281,4.78278,9.13854,8.34124,12.73374,3.5601,3.59638,7.78582,6.43259,12.67875,8.50818,4.89451,2.07661,10.19637,3.11443,15.90502,3.11443,3.7805,0,7.19209-.31546,10.23141-.94587,3.03994-.62894,5.83886-1.55645,8.39792-2.77958,2.55748-1.22415,4.91135-2.68764,7.06137-4.39374,2.1507-1.70497,4.22629-3.63199,6.2279-5.78263h0ZM165.14211,1139.68241v-.22363c0-5.56013-1.02047-10.76852-3.05927-15.62468-2.03835-4.85775-4.89293-9.08347-8.56328-12.68033-3.66979-3.59525-8.02572-6.44935-13.06717-8.56326-5.04308-2.11337-10.56637-3.16953-16.57211-3.16953s-11.54807,1.05616-16.62732,3.16953c-5.07874,2.11391-9.45248,5.00474-13.12289,8.67507-3.6703,3.67033-6.54432,7.93386-8.61991,12.79053-2.07508,4.85616-3.11449,10.06455-3.11449,15.62629v.22202c0,5.5601,1.01951,10.76849,3.05939,15.62621,2.03886,4.85619,4.89343,9.08191,8.56323,12.6788,3.67036,3.59525,8.02629,6.44932,13.06773,8.56323,5.04252,2.1134,10.56637,3.16953,16.57211,3.16953s11.54756-1.05613,16.62727-3.16953c5.07824-2.11391,9.45253-5.00477,13.12289-8.67507,3.66985-3.67036,6.54274-7.93383,8.6194-12.79053,2.07565-4.85619,3.11443-10.06461,3.11443-15.62465h0ZM147.23559,1139.90443c0,3.33647-.5743,6.46927-1.72339,9.3974-1.14961,2.92906-2.74438,5.50492-4.78267,7.73015-2.03886,2.22417-4.50445,3.96587-7.39576,5.22675-2.89244,1.26088-6.04253,1.89034-9.45349,1.89034-3.48511,0-6.65464-.64884-9.50922-1.94538-2.85464-1.29767-5.3386-3.05939-7.45194-5.28355-2.11244-2.22366-3.74388-4.8194-4.89298-7.78526-1.14961-2.96594-1.72334-6.116-1.72334-9.45248v-.22363c0-3.33647.57373-6.4693,1.72334-9.3974,1.1491-2.92912,2.74387-5.50497,4.78267-7.73018,2.03886-2.22363,4.48557-3.96587,7.34015-5.22675,2.85464-1.25984,6.02417-1.89028,9.50916-1.89028,3.41005,0,6.56122.64881,9.45355,1.94538,2.89143,1.29815,5.3937,3.05933,7.50715,5.28347,2.11232,2.22518,3.74377,4.81943,4.89338,7.78531,1.1491,2.96639,1.72339,6.11761,1.72339,9.45409v.22202h0ZM249.55578,1178.60728v-77.8514h-16.90447v47.93487l-36.47979-47.93487h-15.79312v77.8514h16.90436v-49.49126l37.70394,49.49126h14.56908ZM327.5195,1116.2152v-15.45932h-59.2798v77.8514h17.12804v-30.1396h37.14699v-15.45828h-37.14699v-16.79421h42.15176ZM359.10427,1178.60728v-77.8514h-17.12651v77.8514h17.12651ZM454.41751,1178.60728l-33.36479-78.4073h-15.79318l-33.36474,78.4073h17.46141l7.11698-17.46091h32.92082l7.11856,17.46091h17.90494ZM423.27694,1146.0215h-20.68667l10.34331-25.24673,10.34336,25.24673h0ZM535.60649,1178.60728v-77.8514h-16.90441v47.93487l-36.47979-47.93487h-15.79318v77.8514h16.90447v-49.49126l37.70388,49.49126h14.56903ZM622.68881,1166.04037l-10.89867-11.01051c-3.03983,2.81683-6.0991,5.04201-9.17527,6.67346-3.07764,1.62998-6.83989,2.44576-11.28924,2.44576-3.33647,0-6.39416-.64884-9.17527-1.94538-2.7806-1.29767-5.15329-3.05939-7.11816-5.28355-1.96375-2.22366-3.50342-4.8194-4.61465-7.78526-1.11293-2.96594-1.66824-6.116-1.66824-9.45248v-.22363c0-3.33647.55531-6.4693,1.66824-9.3974,1.11123-2.92912,2.66927-5.50497,4.67083-7.73018,2.00212-2.22363,4.39261-3.96587,7.17377-5.22675,2.77947-1.25984,5.80207-1.89028,9.06349-1.89028,3.93021,0,7.47036.77794,10.62147,2.33541,3.15179,1.55696,6.24627,3.70709,9.28717,6.45144l10.89867-12.56849c-1.77946-1.78005-3.70653-3.41-5.7837-4.89293-2.07508-1.48346-4.337-2.74435-6.78315-3.78214-2.44728-1.03779-5.17171-1.85355-8.17435-2.44723-3.00411-.59215-6.3207-.88925-9.95432-.88925-6.00574,0-11.49235,1.05616-16.46033,3.16953-4.96792,2.11391-9.23049,5.00474-12.79053,8.67507-3.55852,3.67033-6.33912,7.93386-8.34124,12.79053-2.00207,4.85616-3.00259,10.06455-3.00259,15.62629v.22202c0,5.5601,1.00052,10.78844,3.00259,15.68142,2.00212,4.89281,4.78272,9.13854,8.34124,12.73374,3.56004,3.59638,7.78582,6.43259,12.67869,8.50818,4.89451,2.07661,10.1958,3.11443,15.90496,3.11443,3.78062,0,7.19169-.31546,10.23152-.94587,3.03944-.62894,5.83891-1.55645,8.39742-2.77958,2.55794-1.22415,4.91175-2.68764,7.06193-4.39374,2.15058-1.70497,4.22572-3.63199,6.22773-5.78263h0ZM695.53609,1178.60728v-15.23567h-42.26298v-16.34905h36.70234v-15.23728h-36.70234v-15.79318h41.70756v-15.23623h-58.61203v77.8514h59.16745ZM813.42622,1178.60728v-77.8514h-16.90492v47.93487l-36.47911-47.93487h-15.79318v77.8514h16.90436v-49.49126l37.70388,49.49126h14.56897ZM898.73027,1144.68707v-43.93119h-17.12815v44.59839c0,6.2279-1.48293,10.89867-4.4489,14.01316-2.96631,3.11336-7.0803,4.67139-12.34537,4.67139-5.26349,0-9.37895-1.61314-12.34481-4.83788-2.96597-3.22621-4.44878-8.02719-4.44878-14.40361v-44.04145h-17.12657v44.48658c0,11.49294,3.00259,20.13071,9.00833,25.91339,6.00586,5.78313,14.23531,8.67456,24.68995,8.67456,5.18991,0,9.89798-.72236,14.12488-2.16856,4.22623-1.44512,7.82143-3.63199,10.78728-6.56161,2.96597-2.92918,5.24619-6.57953,6.84-10.9549,1.59471-4.3743,2.39212-9.52753,2.39212-15.45828h0ZM994.04193,1178.60728v-77.8514h-18.46188l-20.46462,32.92073-20.46293-32.92073h-18.46245v77.8514h16.90447v-50.49235l21.68702,32.92073h.44578l21.91025-33.25459v50.82621h16.90436ZM1071.89449,1178.60728v-15.23567h-42.26355v-16.34905h36.70279v-15.23728h-36.70279v-15.79318h41.70767v-15.23623h-58.61214v77.8514h59.16801ZM1045.64622,1094.63832l14.23678-13.34595-14.5701-6.33909-12.56758,19.68504h12.9009ZM1154.52892,1178.60728l-19.01832-27.80421c4.9669-1.85355,8.989-4.7632,12.06664-8.73014,3.07674-3.96692,4.61629-9.10183,4.61629-15.40315v-.22309c0-8.08136-2.57738-14.38372-7.73066-18.90656-5.15317-4.52231-12.36312-6.78425-21.63209-6.78425h-35.5889v77.8514h17.12815v-24.91182h13.4561l16.68395,24.91182h20.01884ZM1134.8434,1127.55906c0,3.33647-1.13073,6.00574-3.39254,8.00784-2.26101,2.00212-5.50559,3.00262-9.73137,3.00262h-17.34946v-22.35431h17.01569c4.22623,0,7.52608.92598,9.89809,2.77953,2.37234,1.85459,3.55959,4.63412,3.55959,8.34277v.22156h0ZM1185.55681,1178.60728v-77.8514h-17.12646v77.8514h17.12646ZM1285.42971,1168.8199l-8.00724-6.78321c2.22518-3.26306,3.9301-6.78473,5.11644-10.56642,1.18589-3.78056,1.77951-7.71071,1.77951-11.78786v-.22363c0-5.56013-1.02053-10.76852-3.05933-15.62468-2.03835-4.85775-4.89287-9.08347-8.56323-12.68033-3.66979-3.59525-8.02567-6.44935-13.06717-8.56326-5.04308-2.11337-10.56642-3.16953-16.57217-3.16953s-11.54796,1.05616-16.62732,3.16953c-5.07824,2.11391-9.45242,5.00474-13.12289,8.67507-3.67025,3.67033-6.54432,7.93386-8.61985,12.79053-2.07508,4.85616-3.11449,10.06455-3.11449,15.62629v.22202c0,5.5601,1.01951,10.76849,3.05944,15.62621,2.03869,4.85619,4.89343,9.08191,8.56323,12.6788,3.67025,3.59525,8.02612,6.44932,13.06762,8.56323,5.04308,2.1134,10.56642,3.16953,16.57217,3.16953,4.37441,0,8.48976-.57424,12.34492-1.72334,3.85561-1.14966,7.45194-2.79948,10.78841-4.94967l8.56334,7.67404,10.89861-12.12333h0ZM1266.41196,1139.90443c0,4.00368-.70405,7.56217-2.11238,10.67665l-12.79014-11.56587-10.90008,12.23308,12.67971,10.78841c-3.18897,1.40839-6.59948,2.11238-10.23254,2.11238-3.48511,0-6.65452-.64884-9.50927-1.94538-2.85452-1.29767-5.33854-3.05939-7.45194-5.28355-2.11215-2.22366-3.74383-4.8194-4.89276-7.78526-1.14961-2.96594-1.72345-6.116-1.72345-9.45248v-.22363c0-3.33647.57384-6.4693,1.72345-9.3974,1.14893-2.92912,2.74375-5.50497,4.78255-7.73018,2.0388-2.22363,4.48608-3.96587,7.34026-5.22675,2.85452-1.25984,6.02405-1.89028,9.50905-1.89028,3.40994,0,6.56128.64881,9.45355,1.94538,2.89137,1.29815,5.3937,3.05933,7.50777,5.28347,2.1117,2.22518,3.74326,4.81943,4.89276,7.78531,1.14904,2.96639,1.72345,6.11761,1.72345,9.45409v.22202h0ZM1366.17454,1144.68707v-43.93119h-17.12804v44.59839c0,6.2279-1.48304,10.89867-4.4489,14.01316-2.96642,3.11336-7.0803,4.67139-12.34537,4.67139-5.26349,0-9.37884-1.61314-12.34492-4.83788-2.96585-3.22621-4.44878-8.02719-4.44878-14.40361v-44.04145h-17.12646v44.48658c0,11.49294,3.0027,20.13071,9.00845,25.91339,6.00586,5.78313,14.23509,8.67456,24.69018,8.67456,5.18945,0,9.89764-.72236,14.125-2.16856,4.22567-1.44512,7.82109-3.63199,10.78683-6.56161,2.96585-2.92918,5.24665-6.57953,6.83989-10.9549,1.59471-4.3743,2.39212-9.52753,2.39212-15.45828h0ZM1442.80233,1178.60728v-15.23567h-42.26355v-16.34905h36.70291v-15.23728h-36.70291v-15.79318h41.70767v-15.23623h-58.61203v77.8514h59.1679ZM1559.91302,1166.04037l-10.89873-11.01051c-3.03921,2.81683-6.09865,5.04201-9.17527,6.67346-3.07775,1.62998-6.83989,2.44576-11.28879,2.44576-3.33647,0-6.39467-.64884-9.17516-1.94538-2.78117-1.29767-5.1534-3.05939-7.11873-5.28355-1.96375-2.22366-3.50342-4.8194-4.61471-7.78526-1.1122-2.96594-1.66807-6.116-1.66807-9.45248v-.22363c0-3.33647.55587-6.4693,1.66807-9.3974,1.11129-2.92912,2.66927-5.50497,4.67145-7.73018,2.0015-2.22363,4.39272-3.96587,7.17321-5.22675,2.77958-1.25984,5.80218-1.89028,9.06394-1.89028,3.93021,0,7.47036.77794,10.62169,2.33541,3.15111,1.55696,6.24604,3.70709,9.28706,6.45144l10.89861-12.56849c-1.78019-1.78005-3.70709-3.41-5.78364-4.89293-2.07565-1.48346-4.33756-2.74435-6.78326-3.78214-2.44728-1.03779-5.17148-1.85355-8.17464-2.44723-3.0044-.59215-6.32075-.88925-9.95449-.88925-6.00574,0-11.49235,1.05616-16.46038,3.16953-4.96781,2.11391-9.23032,5.00474-12.79048,8.67507-3.5579,3.67033-6.33918,7.93386-8.34124,12.79053-2.0015,4.85616-3.00248,10.06455-3.00248,15.62629v.22202c0,5.5601,1.00098,10.78844,3.00248,15.68142,2.00207,4.89281,4.78335,9.13854,8.34124,12.73374,3.56016,3.59638,7.78582,6.43259,12.67869,8.50818,4.89445,2.07661,10.19637,3.11443,15.90496,3.11443,3.78056,0,7.1922-.31546,10.23152-.94587,3.04-.62894,5.8388-1.55645,8.39798-2.77958,2.55737-1.22415,4.91118-2.68764,7.06188-4.39374,2.15013-1.70497,4.22578-3.63199,6.22728-5.78263h0ZM1649.44341,1178.60728l-33.36553-78.4073h-15.79318l-33.36485,78.4073h17.46147l7.11692-17.46091h32.92076l7.11873,17.46091h17.90567ZM1618.30205,1146.0215h-20.68661l10.34331-25.24673,10.34331,25.24673h0ZM1730.63166,1178.60728v-77.8514h-16.90447v47.93487l-36.47979-47.93487h-15.79318v77.8514h16.90447v-49.49126l37.70388,49.49126h14.56908ZM1825.16579,1178.60728l-33.36474-78.4073h-15.79318l-33.36542,78.4073h17.4617l7.11692-17.46091h32.92122l7.11805,17.46091h17.90544ZM1794.02477,1146.0215h-20.68616l10.34319-25.24673,10.34297,25.24673h0ZM1908.91186,1139.68241v-.22363c0-5.48666-1.00052-10.58324-3.0027-15.29136-2.00218-4.70917-4.83782-8.80471-8.50807-12.28976s-8.04443-6.20945-13.123-8.17427c-5.07925-1.96536-10.65809-2.94752-16.73854-2.94752h-30.36204v77.8514h30.36204c6.08045,0,11.65929-1.00052,16.73854-3.00259,5.07857-2.00218,9.45276-4.74435,13.123-8.2294s6.50589-7.60057,8.50807-12.34543c2.00218-4.74588,3.0027-9.86189,3.0027-15.34745h0ZM1891.00596,1139.90443c0,3.48451-.57509,6.63621-1.723,9.45352-1.14904,2.81632-2.74387,5.2636-4.78267,7.34021-2.03835,2.07548-4.50394,3.67036-7.397,4.78159-2.8908,1.11287-6.07932,1.66824-9.56375,1.66824h-13.23422v-46.93279h13.23422c3.48443,0,6.67295.57427,9.56375,1.72339,2.89306,1.14958,5.35866,2.76269,7.397,4.83777,2.0388,2.07714,3.63362,4.56113,4.78267,7.45196,1.14791,2.89131,1.723,6.04251,1.723,9.45409v.22202h0ZM1999.99932,1178.60728l-33.36474-78.4073h-15.79318l-33.36474,78.4073h17.46124l7.11737-17.46091h32.92054l7.1185,17.46091h17.90499ZM1968.85875,1146.0215h-20.68661l10.34319-25.24673,10.34342,25.24673h0Z"/>
  <polygon class="st3" points="1001.65402 0 926.08248 174.54802 848.43676 91.79999 848.44151 309.86504 886.80853 348.23194 886.80853 188.63606 938.72964 243.95422 980.81935 142.31334 980.81935 442.24762 999.90593 461.33421 1000.10916 461.33421 1019.191 442.25237 1019.191 142.31334 1061.28545 243.95422 1113.20193 188.63606 1113.20193 348.24132 1151.56883 309.86967 1151.56883 140.22526 1151.56883 91.79536 1073.92797 174.54802 1001.65402 0 1001.65402 0"/>
  <polygon class="st0" points="0 1045.021 1999.99887 1045.021 1999.99887 1055.57533 0 1055.57533 0 1045.021 0 1045.021"/>
  <path class="st0" d="M834.188,716.00806c19.2472,0,34.85659,15.60945,34.85659,34.85665,0,19.24251-15.60939,34.85202-34.85659,34.85202-19.24257,0-34.85196-15.60951-34.85196-34.85202,0-2.33386.22199-4.60623.66144-6.80316l.04239-.21255-307.67275-307.67224,113.41886,3.61418-72.3212-174.5296,176.8634,69.98785-3.60944-113.41931,346.23293,346.23813-27.13226,27.13226-277.76214-277.76203,2.40478,75.83139-54.54811-22.60165,274.80465,274.80934c7.93231,7.92292,11.67398,10.00157,16.35594,5.32447h.00463c3.02836-3.03305,7.98916-3.03785,11.02215-.00475l31.41726,31.42201c3.03774,3.03785,3.03774,7.99374,0,11.02679v.00469c-3.03311,3.03311-7.99368,3.03311-11.02204,0l-22.97012-22.96062-4.46449,4.46466-49.15283,49.15735-302.23966-302.23915,24.13272,58.25667-75.82716-2.40953,239.19721,239.19682c2.26768-.46302,4.61098-.70869,7.01576-.70869h0ZM1050.37215,725.13089l3.25521,3.25509c4.8376,4.83782,4.8376,12.76064,0,17.60321l-36.02372,36.01886c-4.84257,4.84252-12.76064,4.84252-17.60309,0l-3.25521-3.25509c-4.83782-4.84257-4.83782-12.76069,0-17.60321l36.02372-36.01886c4.83771-4.84246,12.76064-4.84246,17.60309,0h0ZM834.188,735.30257c8.59838,0,15.5669,6.96846,15.5669,15.56215,0,8.59849-6.96852,15.5669-15.5669,15.5669-8.59363,0-15.56226-6.9684-15.56226-15.5669,0-8.59369,6.96863-15.56215,15.56226-15.56215h0Z"/>
  <path class="st2" d="M1165.81307,716.00806c2.40456,0,4.74785.24098,7.01565.70869l239.19733-239.19682-75.82732,2.40953,24.13272-58.25667-302.2396,302.23915-3.25046-3.25035-.00463-.00469h-.02374c-3.65668-3.65668-8.46128-5.48033-13.24247-5.48033-4.80945,0-9.61891,1.82834-13.27084,5.48033v.00469l-36.02361,36.01886h0c-3.65668,3.65668-5.48039,8.46619-5.48039,13.27084s1.82371,9.61891,5.48039,13.2709v.00469l2.02671,2.02207c-4.12439,1.04879-8.69287-.02837-11.90535-3.24091l-36.02372-36.01886c-4.83782-4.84257-4.83782-12.76538,0-17.60321l49.15746-49.15746,1.07716,1.07252,17.41411,17.41886c2.745,2.74963,6.36868,4.12914,9.98275,4.12914,3.61882,0,7.23775-1.37951,9.98263-4.12914l.00486-.0048c2.74477-2.74483,4.12428-6.36839,4.12428-9.97789,0-3.61413-1.37951-7.2378-4.12428-9.98744l-17.41434-17.41411c-.36372-.36378-.74158-.70394-1.13378-1.02047l288.64233-288.64719-54.54788,22.60165,2.40456-75.83139-197.92425,197.9195-27.13226-27.13226,266.39514-266.3956-3.60932,113.41931,176.86329-69.98785-72.3212,174.5296,113.41874-3.61418-307.67275,307.67224-.00475-.0048c.46296,2.2631.7088,4.61578.7088,7.01582,0,19.25195-15.60487,34.85671-34.85196,34.85671-19.25206,0-34.85682-15.60476-34.85682-34.85671,0-19.24726,15.60476-34.85196,34.85682-34.85196h0ZM1165.81307,735.30257c-8.59849,0-15.56701,6.96846-15.56701,15.56215,0,8.59849,6.96852,15.5669,15.56701,15.5669,8.59352,0,15.56215-6.9684,15.56215-15.5669,0-8.59369-6.96863-15.56215-15.56215-15.56215h0Z"/>
</svg>