<?xml version="1.0" encoding="UTF-8"?><svg id="a" xmlns="http://www.w3.org/2000/svg" viewBox="0 0 64.0005 59.165"><defs><style>.c{fill:#f9f7f2;}</style></defs><g id="b"><path class="c" d="M32.0005,59.165c-.2012,0-.4023-.001-.6035-.0166-9.8521-.1582-18.9648-4.7939-24.9409-12.7139C2.2329,40.8477,0,34.1846,0,27.165c0-.5527.4478-1,1-1s1,.4473,1,1c0,6.5801,2.0928,12.8262,6.0522,18.0635,5.6025,7.4268,14.1455,11.7715,23.4385,11.9229.2104.0146.3613.0146.5098.0137.1523.0039.2993.001.4478-.0107,1.1348-.0176,2.0732-.0762,2.9326-.1836,4.7954-.5303,9.4487-2.2578,13.4707-4.9961,1.8765-1.2734,3.5586-2.7148,5.002-4.2852,5.2568-5.582,8.147-12.8682,8.147-20.5244,0-.5527.4478-1,1-1s1,.4473,1,1c0,8.168-3.0835,15.9414-8.6826,21.8867-1.5396,1.6748-3.3394,3.2178-5.3418,4.5762-4.2896,2.9219-9.2563,4.7646-14.3613,5.3291-.9194.1143-1.9302.1787-3.0752.1943-.1372.0127-.3379.0137-.5391.0137Z"/><path class="c" d="M35.707,59.1514c-.2446,0-.4893-.0889-.6821-.2686l-.2021-.1885-18.5425-18.2061-4.9541,5.9814c-.1899.2295-.4722.3623-.77.3623h-3.3018c-.5522,0-1-.4473-1-1s.4478-1,1-1h2.8315l5.3477-6.457c.1782-.2158.439-.3467.7183-.3613.2749-.0205.5522.0898.752.2852l19.4854,19.1211c.4038.377.4258,1.0098.0493,1.4131-.1968.2119-.4639.3184-.7314.3184Z"/><path class="c" d="M49.4146,53.8008c-.2651,0-.5293-.1045-.7261-.3125l-19.2441-20.3271-6.0435,4.6875-1.3687,6.1396c-.1201.54-.6558.8818-1.1938.7578-.5391-.1201-.8784-.6543-.7583-1.1934l1.4473-6.4912c.0508-.2275.1792-.4297.3633-.5723l7.0439-5.4639c.4067-.3154.9858-.2715,1.3389.1025l19.8672,20.9854c.3799.4014.3623,1.0342-.0386,1.4141-.1934.1826-.4404.2734-.6875.2734Z"/><path class="c" d="M54.5898,49.3662c-.2671,0-.5337-.1064-.7305-.3174l-8.0298-8.5859-3.2183,3.3164c-.3853.3975-1.0181.4062-1.4141.0215-.3965-.3848-.4058-1.0176-.0215-1.4141l3.9492-4.0703c.1904-.1963.4736-.3105.7271-.3037.2734.0029.5342.1172.7212.3174l8.7471,9.3535c.377.4033.356,1.0361-.0474,1.4131-.1929.1807-.438.2695-.6831.2695Z"/><path class="c" d="M29.5503,32.8135c-.5522,0-1-.4473-1-1V1c0-.5527.4478-1,1-1s1,.4473,1,1v30.8135c0,.5527-.4478,1-1,1Z"/><path class="c" d="M29.5503,18.373c-.1943,0-.3877-.0566-.5542-.168-.2783-.1855-.4458-.4971-.4458-.832V3.2637c0-.335.1675-.6465.4458-.832.2778-.1865.6299-.2207.9399-.0908l16.8833,7.0547c.3721.1553.6143.5195.6143.9229s-.2422.7676-.6143.9229l-16.8833,7.0547c-.124.0518-.2554.0771-.3857.0771ZM30.5503,4.7656v11.1055l13.2896-5.5527-13.2896-5.5527Z"/><path class="c" d="M35.707,59.1514h-4.2324c-.5522,0-1-.4473-1-1s.4478-1,1-1h4.2324c.5522,0,1,.4473,1,1s-.4478,1-1,1Z"/></g></svg>