<?xml version="1.0" encoding="UTF-8"?><svg id="a" xmlns="http://www.w3.org/2000/svg" viewBox="0 0 1500 1501.0378"><defs><style>.b{fill:#aa1916;}</style></defs><path class="b" d="M959.0904,409.1343c-52.1728-44.4353-116.9296-66.6444-194.0833-66.6444-75.6233,0-139.6319,22.6003-192.0597,67.8178-52.4278,45.2175-84.6872,111.8789-96.7611,199.9502l160.2085,22.8043c8.5537-97.4413,47.3432-146.1619,116.3343-146.1619,26.1204,0,48.3465,8.2816,66.6444,24.8449,18.2979,16.5804,27.4808,39.2657,27.4808,68.1069,0,23.3995-4.8975,42.9728-14.6247,58.7709-9.7271,15.781-27.0727,32.8375-52.0197,51.1524-47.5472,35.0823-76.8816,61.8829-87.9862,80.3848-11.1046,18.519-16.6654,63.2433-16.6654,134.1901v22.2091h150.8215c0-37.8031,4.0132-63.7194,12.0398-77.7489,7.9586-14.0466,30.8819-33.5178,68.6341-58.4818,86.9319-56.9003,130.3978-127.643,130.3978-212.2281,0-68.1919-26.1204-124.531-78.3611-168.9663Z"/><rect class="b" x="672.0552" y="978.5961" width="183.5739" height="176.5677"/><path class="b" d="M762.3542,0C355.6176,0,24.7084,330.8922,24.7084,737.6288c0,112.6271,26.2734,225.2883,76.0824,326.7088L1.768,1435.2777c-4.8125,17.9748.3572,37.293,13.5874,50.5232,9.8632,9.8292,22.9744,15.2369,36.8678,15.2369,4.3024,0,8.6558-.5441,13.5024-1.7685l371.3652-99.3799c101.8287,50.013,211.1908,75.3682,325.2634,75.3682,406.7536,0,737.6458-330.8923,737.6458-737.6288S1169.1078,0,762.3542,0ZM762.3542,1370.776c-104.2265,0-203.6234-24.4538-295.4698-72.7153l-4.3534-2.2958-13.6554-3.197c-4.2684-.5102-7.9926-.2721-10.5944-.017l-312.2883,82.4085,80.895-302.9523,1.2754-6.0199-.017-2.7719c.2721-2.4828.5102-6.156.017-10.6624-.6122-4.9316-1.9726-8.7068-1.8706-7.8226l-3.7242-10.3733c-48.0064-91.0302-73.3786-193.6411-73.3786-296.7282,0-349.1221,284.0422-633.1473,633.1643-633.1473s633.1643,284.0252,633.1643,633.1473-284.0252,633.1472-633.1643,633.1472Z"/></svg>