<?xml version="1.0" encoding="UTF-8"?><svg id="a" xmlns="http://www.w3.org/2000/svg" viewBox="0 0 2000 1180.9432294515"><defs><style>.b{fill:#6d717a;}.c{fill:#a00;}.c,.d{fill-rule:evenodd;}.d{fill:#232d3d;}</style></defs><path class="d" d="M100.1405531517,945.5024446686v-.3112791298c0-7.6598514829-1.3973087297-14.7743428347-4.1920392171-21.3464692975-2.7947870014-6.5737088549-6.7533668712-12.2912870751-11.8772089734-17.1558429305-5.1233899902-4.8651775095-11.2293889545-8.6683438704-18.3186185468-11.4115901009-7.0908119844-2.7433592585-14.8787241986-4.1143889767-23.3669579408-4.1143889767H.0009607381v108.6780671047h42.3847677355c8.4882337421,0,16.2761459563-1.3973369867,23.3669579408-4.1920392171,7.0892295923-2.7942783754,13.1952285566-6.6231586078,18.3186185468-11.4882230893,5.1238421022-4.8645558555,9.082421972-10.6094868531,11.8772089734-17.2330975729,2.7947304874-6.6251931119,4.1920392171-13.7673763252,4.1920392171-21.42513679h0ZM75.144805124,945.8126500323c0,4.8645558555-.8031770138,9.2634928384-2.4058011172,13.1968674627-1.6041499815,3.9317922323-3.8304061105,7.3480637271-6.6765643408,10.2466669524-2.8456496043,2.8976990013-6.2877479986,5.1234465042-10.3255039869,6.6750949767-4.0362301102,1.5527787526-8.4866513501,2.3286029888-13.3512072055,2.3286029888h-18.4750493078v-65.5164578809h18.4750493078c4.8645558555,0,9.3149770953.8015946217,13.3512072055,2.4057446032,4.0377559883,1.6047151215,7.4798543826,3.8561199819,10.3255039869,6.7538189832,2.8461582303,2.8992248794,5.0724143593,6.3664154911,6.6765643408,10.4026456013,1.6026241034,4.0356649702,2.4058011172,8.4351670931,2.4058011172,13.1968109487v.3102053637h0ZM146.4067026286,999.8409413379v-108.6780671047h-23.9076274096v108.6780671047h23.9076274096ZM272.3189975863,984.4709126523v-47.197924105h-47.197839334v20.6494255818h24.0655840486v15.6287780494c-6.1060554783,4.3732796254-13.6116237324,6.5717308648-22.512353184,6.5717308648-4.8650644815,0-9.2897153359-.8525702526-13.2745177031-2.5616667381-3.9847458533-1.7071750094-7.451992979-4.1402158761-10.4026456013-7.2446431012-2.9485616042-3.1044837391-5.2262454761-6.7538754972-6.8304519716-10.9711764738-1.6047151215-4.1920957311-2.4057446032-8.7984391058-2.4057446032-13.7657939332v-.3098097657c0-4.6576580897.8010294817-9.0565950726,2.4057446032-13.1458353178,1.6042064955-4.1150106307,3.8304626245-7.6851132423,6.6766773688-10.7381127245,2.8456496043-3.0535081082,6.1574832212-5.5122628464,9.9348791967-7.3238757337,3.7794869936-1.8099174672,7.8409788632-2.7159499669,12.1884881032-2.7159499669,3.1049358511,0,5.9505854554.2587776208,8.538022579.7758242363,2.5890195157.5169901015,4.9952727449,1.2414996228,7.2210202479,2.1727373679,2.2246737369.9317463711,4.3716407193,2.0703339941,6.4419181994,3.4161584668,2.0703905081,1.3460505288,4.1406679882,2.8992813934,6.2110584963,4.6578276317l15.060303691-18.1647874301c-2.7946739734-2.3801437598-5.6939553668-4.5018489828-8.695527106-6.364889613-3.0020238512-1.8629841163-6.2088544501-3.4157628688-9.625125945-4.6572059776-3.4162714949-1.2435341269-7.1170344819-2.2005422575-11.1013282232-2.8734544939-3.9848023673-.6713863583-8.4093967076-1.0090010136-13.2745177031-1.0090010136-8.2792449582,0-15.8871035582,1.4745633721-22.8226150617,4.4252725084-6.9348898495,2.9501439963-12.9363944219,6.9863175925-18.0088652952,12.1097075827-5.0719057333,5.1232769622-9.0309377151,11.0755013237-11.8766438334,17.8545820664-2.8477406224,6.7795328547-4.2708197376,14.0498333134-4.2708197376,21.8136140482v.3102053637c0,8.0735339865,1.3973652437,15.5259790776,4.1915871051,22.3564310491,2.7947304874,6.8303954576,6.7023347263,12.7312485902,11.7233213427,17.6986881885,5.0188955983,4.9679764814,11.0220390767,8.8498668488,18.0089218092,11.6440887101,6.9863741065,2.7947587444,14.7228585777,4.1921239881,23.2110358059,4.1921239881,9.9348791967,0,18.759032174-1.6813763669,26.4713851658-5.0462483758,7.7107705998-3.3632048458,14.3600386771-7.4267029626,19.9490475398-12.1868209401h0ZM320.2927176705,999.8409413379v-108.6780671047h-23.9080795216v108.6780671047h23.9080795216ZM429.7493781976,913.2089868907v-22.0461126574h-90.0483389701v22.0461126574h33.0693385282v86.6319544472h23.9075708956v-86.6319544472h33.0714295463ZM553.9524071278,999.8409413379l-46.5762983266-109.4540043689h-22.0467908255l-46.5763548406,109.4540043689h24.3753938143l9.9348226827-24.3757894123h45.9570178793l9.9370267288,24.3757894123h24.9951828877ZM510.4804795123,954.3522550034h-28.8775818811l14.4387626835-35.2439973722,14.4388191975,35.2439973722h0ZM648.8143828364,999.8409413379v-21.5810589249h-54.1848350945v-87.0970081798h-23.9096619137v108.6780671047h78.0944970083ZM795.6855740575,913.2089868907v-22.0461126574h-90.0481694281v22.0461126574h33.0691689862v86.6319544472h23.9081360356v-86.6319544472h33.0708644063ZM907.9350435959,999.8409413379l-26.5486963223-38.8141564978c6.9333639715-2.5873806096,12.5481432197-6.6488159652,16.8445638008-12.1868491971,4.294612133-5.5374680918,6.4436136195-12.7054782047,6.4436136195-21.5018262924v-.3117312418c0-11.2809297254-3.5972293332-20.0793123173-10.7911228595-26.3926611594-7.1936674703-6.3134053561-17.2592635564-9.4708427162-30.1976924824-9.4708427162h-49.6810081217v108.6780671047h23.9097184277v-34.7763439955h18.7848025594l23.2897598124,34.7763439955h27.946061566ZM880.4552225565,928.5796089734c0,4.6572059776-1.5790012501,8.3836828362-4.7364386102,11.1779612116-3.156081024,2.7947870014-7.6856783824,4.1920957311-13.5843839828,4.1920957311h-24.2199803054v-31.2062413839h23.7538528068c5.8992707405,0,10.5055010872,1.2928708517,13.8173347041,3.8802514613,3.3117205889,2.5890195157,4.9696153875,6.469327491,4.9696153875,11.6457276162v.3102053637h0ZM1019.2523711651,952.4892708871v-61.3263966539h-23.9096053997v62.257634399c0,8.6934360878-2.0703339941,15.2141913218-6.2105498702,19.5622091878-4.1406679882,4.3459268479-9.8838470518,6.5206987199-17.233606199,6.5206987199-7.3473855591,0-13.0923730707-2.2519134864-17.2329280309-6.7537624692-4.1407810162-4.5033748609-6.2111150103-11.2057661011-6.2111150103-20.1065520668v-61.4802277706h-23.9081360356v62.1017687781c0,16.043025693,4.1920957311,28.1017576448,12.5758350813,36.1737657532,8.3837393502,8.0734492155,19.8719059254,12.1096510687,34.4666472579,12.1096510687,7.2450952132,0,13.8168825921-1.0084358735,19.7180748087-3.0273138677,5.8988186285-2.0172956021,10.9177142267-5.0702950842,15.0582691869-9.1595635864,4.1407810162-4.0892402452,7.3238757337-9.1847970889,9.5480408446-15.2928870713,2.226312643-6.1065641043,3.3390733664-13.3002315746,3.3390733664-21.5790244208h0ZM1122.1868636082,967.7035187229v-.3102618777c0-4.7622089956-.7523144109-8.8494147367-2.2520830284-12.2655732036-1.5016900937-3.4163845229-3.751738618-6.3921858766-6.7022216983-8.9265563511-2.9502570243-2.5359528666-6.5974447363-4.7107247387-10.8939783454-6.5207552339-4.294499105-1.8114998593-9.2111043574-3.4414767403-14.7229150918-4.8902697269-4.6577711177-1.2430820149-8.5138345856-2.3286029888-11.5930565652-3.260405874-3.0531125101-.9312377451-5.4589136274-1.9159377373-7.2447561292-2.9500874823-1.7583766963-1.0361842491-2.9762534658-2.2005422575-3.6492222162-3.4934131093-.6710472743-1.2945097578-1.0084358735-2.8204443589-1.0084358735-4.5805729893v-.3096967377c0-2.6918750015,1.1641884664-4.9422626099,3.4927914552-6.7538754972,2.3291681289-1.8114998593,5.8226377521-2.717532359,10.4799567578-2.717532359,4.6576580897,0,9.3153161793.9574037286,13.973200325,2.8719286158,4.6576580897,1.9159942513,9.4198670853,4.5291452463,14.2827840347,7.8404137232l12.4215518525-18.0084696971c-5.5894609748-4.4503082118-11.7233778567-7.8666362207-18.3979076934-10.2466669524-6.6765643408-2.3805958718-13.9982925424-3.5721936297-21.9695926971-3.5721936297-5.5893479468,0-10.712794451.7774066283-15.3427606791,2.3286595028-4.6318877042,1.5532873786-8.643929821,3.7794869936-11.9815338234,6.6765643408-3.3376040024,2.8992813934-5.925041126,6.3391192276-7.7879687282,10.3239215948-1.8372702448,3.9863847594-2.7690731299,8.4624068427-2.7690731299,13.429931212v.3117312418c0,5.381658985.8530223647,9.8834514537,2.5622318781,13.5071293404,1.7070619814,3.6215303546,4.1387465121,6.6487594512,7.2447561292,9.082365458,3.1043141971,2.4315715027,6.9096280901,4.4761351113,11.3599928159,6.1317693497,4.4762481393,1.6556907524,9.4436029666,3.155967996,14.955978841,4.5019054968,4.5526550717,1.1385876229,8.2791884442,2.226199615,11.1270420946,3.260292846,2.8457061183,1.0356756231,5.0697582012,2.0703339941,6.7003002222,3.1060096172,1.6040934675,1.034149745,2.6917619735,2.1475321225,3.260292846,3.3376040024.5701132645,1.1900718799.8546047567,2.5616667381.8546047567,4.1148976027v.3096967377c0,3.209034645-1.3717078862,5.7192171262-4.1148976027,7.5292476214-2.7413812684,1.8114998593-6.5980098763,2.717532359-11.5654777317,2.717532359-6.2108889543,0-11.9280715763-1.1900718799-17.1562950426-3.5701026116-5.2258498781-2.3821782639-10.3240911369-5.5889523488-15.2930283563-9.6267083371l-14.1270314418,16.9227791812c6.5206987199,5.8991859695,13.7657939332,10.2724655949,21.7349465557,13.1186520822,7.9696047346,2.8477406224,16.09450995,4.2703393686,24.3758459263,4.2703393686,5.8991577125,0,11.2807601834-.7517492709,16.1201673074-2.2514613744,4.838841984-1.5002207296,9.0309377151-3.6750208586,12.5242943103-6.5207269769,3.4930175112-2.8461864873,6.2106628982-6.364861356,8.1764459864-10.5564202041,1.9401257307-4.1921522451,2.9250517788-8.9800185982,2.9250517788-14.3616210691h0ZM1225.2764304761,913.2089868907v-22.0461126574h-90.0487345681v22.0461126574h33.0693950422v86.6319544472h23.9080230076v-86.6319544472h33.0713165183ZM1385.6532251595,982.2976949153l-15.2141348078-15.3701134567c-4.243410446,3.9317922323-8.5143997256,7.0378018494-12.8088988306,9.3155422353-4.295968469,2.2755928538-9.5479278166,3.4141239627-15.7590428268,3.4141239627-4.6572059776,0-8.9264998371-.9060324997-12.8084467186-2.7154978549-3.8818338534-1.8120649994-7.1936674703-4.2708762516-9.9369702148-7.3752469627-2.7410421843-3.1044837391-4.8902697269-6.7281616258-6.4414660874-10.8682644739-1.5531178366-4.1406679882-2.3291681288-8.538022579-2.3291681288-13.1957936966v-.3112791298c0-4.6577711177.7760502923-9.0315593691,2.3291681288-13.1187085963,1.5511963605-4.0892402452,3.7259682325-7.6850002143,6.5206987199-10.7910098315,2.7942783754-3.1044272251,6.1317693497-5.5359987278,10.0138292591-7.2966359842,3.8801384333-1.7584897243,8.09969997-2.6387518385,12.6523550417-2.6387518385,5.4867185169,0,10.4283029588,1.0855209739,14.8278050817,3.26034936,4.3989369829,2.173245994,8.7190934453,5.1748177332,12.9643123394,9.0052238436l15.2141348078-17.5449418427c-2.4843555817-2.4844120957-5.1747612192-4.7600049495-8.0733644445-6.8303389436-2.8978120293-2.0703339941-6.0552493894-3.8305191385-9.4698254641-5.2793121251-3.4158193828-1.4483408746-7.2189857437-2.5873806096-11.4110814748-3.4162149809-4.1937911512-.8268563812-8.8236443513-1.2415561368-13.8961152246-1.2415561368-8.3836263222,0-16.042969179,1.4745633721-22.9778025146,4.4252725084-6.9355115036,2.9501439963-12.885644847,6.9863175925-17.8552602344,12.1097075827-4.9672417993,5.1232769622-8.8493017087,11.0755013237-11.6440321961,17.8545820664-2.7947304874,6.7795328547-4.1920957311,14.0498333134-4.1920957311,21.8136140482v.3102053637c0,7.7622548567,1.3973652437,15.059851579,4.1920957311,21.8908686906,2.7947304874,6.8303954576,6.6767903968,12.7568494336,11.6440321961,17.7758015459,4.9696153875,5.0204497334,10.8683209879,8.9795382292,17.6992815855,11.8766155764,6.8325429897,2.8992531364,14.2330517118,4.348046123,22.2025434184,4.348046123,5.277164593,0,10.0393735886-.4404418841,14.2830100907-1.3202236293,4.243071362-.8787362361,8.1505625729-2.173217737,11.7229257446-3.8803079753,3.5698765556-1.7092095135,6.8560528151-3.751682104,9.8576245542-6.1338321109,3.0021368792-2.3801155028,5.8992707405-5.0698429722,8.6938881999-8.0719233374h0ZM1510.633717232,999.8409413379l-46.5763548406-109.4540043689h-22.0466777975l-46.5763548406,109.4540043689h24.3752807863l9.9356138787-24.3757894123h45.9562831972l9.9369702148,24.3757894123h24.9952394017ZM1467.1619026445,954.3522550034h-28.8771862831l14.4383105715-35.2439973722,14.4388757116,35.2439973722h0ZM1623.9702901364,999.8409413379v-108.6780671047h-23.597987186v66.9154055167l-50.9243161926-66.9154055167h-22.0467908255v108.6780671047h23.598439298v-69.0885949966l52.633073594,69.0885949966h20.337581312ZM1755.9374953994,999.8409413379l-46.5761287846-109.4540043689h-22.0467908255l-46.5763548406,109.4540043689h24.3751677583l9.9349357107-24.3757894123h45.9569613652l9.9371962708,24.3757894123h24.9950133456ZM1712.4657938399,954.3522550034h-28.8777514231l14.4388757116-35.2439973722,14.4388757115,35.2439973722h0ZM1872.8446230274,945.5024446686v-.3112791298c0-7.6598514829-1.3974782717-14.7743428347-4.1922087591-21.3464692975-2.7947304874-6.5737088549-6.7536494412-12.2912870751-11.8772089734-17.1558429305-5.1233334762-4.8651775095-11.2293324405-8.6683438704-18.3182229488-11.4115901009-7.0909250124-2.7433592585-14.8790067686-4.1143889767-23.3669579408-4.1143889767h-42.3850503055v108.6780671047h42.3850503055c8.4879511721,0,16.2760329283-1.3973369867,23.3669579408-4.1920392171,7.0888905083-2.7942783754,13.1948894726-6.6231586078,18.3182229488-11.4882230893,5.1235595322-4.8645558555,9.082478486-10.6094868531,11.8772089734-17.2330975729,2.7947304874-6.6251931119,4.1922087591-13.7673763252,4.1922087591-21.42513679h0ZM1847.8487054577,945.8126500323c0,4.8645558555-.8029509578,9.2634928384-2.4056880892,13.1968674627-1.6040934675,3.9317922323-3.8305191385,7.3480637271-6.6763382848,10.2466669524-2.8460452023,2.8976990013-6.2879740547,5.1234465042-10.325786557,6.6750949767-4.0360040542,1.5527787526-8.486594836,2.3286029888-13.3508681215,2.3286029888h-18.4753318778v-65.5164578809h18.4753318778c4.8642732854,0,9.3148640673.8015946217,13.3508681215,2.4057446032,4.0378125023,1.6047151215,7.4797413546,3.8561199819,10.325786557,6.7538189832,2.8458191463,2.8992248794,5.0722448173,6.3664154911,6.6763382848,10.4026456013,1.6027371314,4.0356649702,2.4056880892,8.4351670931,2.4056880892,13.1968109487v.3102053637h0ZM2000,999.8409413379l-46.5763548406-109.4540043689h-22.0467908255l-46.5765808966,109.4540043689h24.3756198703l9.9347096546-24.3757894123h45.9567353092l9.9371962708,24.3757894123h24.9954654577ZM1956.5278463285,954.3522550034h-28.8772993111l14.4386496555-35.2439973722,14.4386496555,35.2439973722h0Z"/><path class="d" d="M72.164256594,1166.0403737734l-10.8986690076-11.01051022c-3.0393796074,2.8168274627-6.0987086579,5.0420098256-9.1753309933,6.6734560706-3.0776961015,1.629976881-6.8399463241,2.4457565175-11.2887286579,2.4457565175-3.3364737223,0-6.3947290067-.648837271-9.1758396194-1.945381533-2.7806019866-1.297674542-5.1527772719-3.0593855645-7.118108248-5.2835506754-1.963805098-2.2236564848-3.5034726018-4.8194011669-4.6147074472-7.785256056-1.1123086114-2.9659396602-1.6682933752-6.1160019428-1.6682933752-9.4524756651v-.2236259108c0-3.3364737223.5559847637-6.469299234,1.6682933752-9.397402769,1.1112348454-2.9291207871,2.6692694002-5.50497254,4.6713344784-7.7301831599,2.0016694802-2.2236282278,4.3927204425-3.9658701762,7.1733224291-5.2267541021,2.7794717065-1.2598384169,5.8020666549-1.8902803798,9.063998407-1.8902803798,3.9302098402,0,7.4703600301.7779435114,10.6215243358,2.3354129262,3.1511643057,1.5569607888,6.2462102063,3.7070925554,9.2871156917,6.451440809l10.8986124936-12.5684882609c-1.7799085315-1.7800498165-3.7070360414-3.4099984405-5.7836430899-4.8929258851-2.0755897964-1.4834643276-4.3375627754-2.7443482535-6.7831497509-3.7821431517-2.4472823956-1.0377948982-5.171652949-1.8535462777-8.1748070803-2.4472258816-3.0042278974-.5921537258-6.3207521765-.8892478407-9.9543765278-.8892478407-6.0057996366,0-11.4923486115,1.0561619492-16.4603250928,3.1695313568-4.9679764814,2.1139062906-9.2304886605,5.0047388405-12.7905882935,8.6750690368-3.558460727,3.6703301963-6.3390627136,7.9338596275-8.3412408198,12.7905317795-2.0015564522,4.856163526-3.0025889913,10.0645505771-3.0025889913,15.6262914333v.2220152617c0,5.5601019501,1.0010325391,10.7884384443,3.0025889913,15.6814208434,2.0021781062,4.8928128571,4.7827800928,9.1385403772,8.3412408198,12.7337352063,3.5600996331,3.5963816231,7.7858211961,6.4325933889,12.6787470812,8.5081831853,4.8945082772,2.0766070484,10.1963694896,3.1144302036,15.9050184972,3.1144302036,3.7805042456,0,7.1920850782-.315461166,10.2314081716-.9458748719,3.0399447474-.6289443419,5.838857271-1.5564521628,8.397924365-2.7795847345,2.5574847019-1.2241498238,4.9113494501-2.6876364513,7.0613681888-4.3937376946,2.1506969067-1.7049709632,4.2262867031-3.6319854452,6.2278996692-5.7826258378h0ZM165.1421119492,1139.6824122121v-.2236259108c0-5.5601302071-1.0204733562-10.7685172582-3.0592725365-15.6246807842-2.0383470683-4.8577459181-4.8929258851-9.0834674811-8.5632843384-12.6803294732-3.6697933133-3.5952513431-8.0257231398-6.4493497909-13.0671678253-8.5632560814-5.0430835916-2.1133694075-10.5663666687-3.1695313568-16.5721097912-3.1695313568-6.0057996366,0-11.5480714187,1.0561619492-16.6273239724,3.1695313568-5.0787439277,2.1139062906-9.4524756651,5.0047388405-13.1228906325,8.6750690368-3.6703019393,3.6703301963-6.5443215733,7.9338596275-8.6199113697,12.7905317795-2.0750811704,4.856163526-3.1144867176,10.0645505771-3.1144867176,15.6262914333v.2220152617c0,5.5601019501,1.0195126181,10.7684890012,3.0593855645,15.6262066623,2.0388556943,4.856191783,4.8934345111,9.081913346,8.5632278244,12.6788035952,3.6703584533,3.5952513431,8.0262882798,6.4493215338,13.0677329653,8.5632278244,5.0425184516,2.1133976645,10.5663666687,3.1695313568,16.5721097912,3.1695313568,6.0057996366,0,11.5475627926-1.0561336922,16.6272674584-3.1695313568,5.0782353016-2.1139062906,9.4525321791-5.0047670975,13.1228906325-8.6750690368,3.6698498273-3.6703584533,6.5427391812-7.9338313705,8.6194027436-12.7905317795,2.0756463104-4.856191783,3.1144302036-10.0646070911,3.1144302036-15.6246525272h0ZM147.2355935139,1139.9044274737c0,3.3364737223-.5742953008,6.469270977-1.7233945283,9.397402769-1.1496078536,2.9290642731-2.7443765105,5.504916026-4.7826670648,7.7301549029-2.0388556943,2.2241651109-4.5044486269,3.9658701762-7.3957615458,5.2267541021-2.892443199,1.2608839259-6.0425337386,1.8903368938-9.4534929172,1.8903368938-3.4851055508,0-6.6546369076-.648837271-9.5092157244-1.945381533-2.8546353308-1.297674542-5.3385953145-3.0593855645-7.451936465-5.2835506754-2.1124369265-2.2236564848-3.7438831715-4.8194011669-4.8929823991-7.785256056-1.1496078536-2.9659396602-1.7233380143-6.1160019428-1.7233380143-9.4524756651v-.2236259108c0-3.3364737223.5737301607-6.469299234,1.7233380143-9.397402769,1.1490992275-2.9291207871,2.7438678845-5.50497254,4.7826670648-7.7301831599,2.0388556943-2.2236282278,4.4855729498-3.9658701762,7.3401517667-5.2267541021,2.8546353308-1.2598384169,6.0241666876-1.8902803798,9.5091592104-1.8902803798,3.4100549545,0,6.5612192602.648809014,9.4535494312,1.945381533,2.8914259469,1.298154911,5.3936964676,3.0593290505,7.5071506462,5.2834659044,2.1123238985,2.2251823629,3.7437701435,4.8194294239,4.8933779971,7.7853125701,1.1490992275,2.9663917722,1.7233945283,6.1176125919,1.7233945283,9.4540863142v.2220152617h0ZM249.5557787419,1178.6072796422v-77.8514020234h-16.9044686442v47.9348667071l-36.4797890807-47.9348667071h-15.7931207708v77.8514020234h16.9043556162v-49.4912623558l37.7039389045,49.4912623558h14.569083975ZM327.5195023467,1116.2151984296v-15.4593208108h-59.2797985411v77.8514020234h17.1280380409v-30.1395960871h37.1469934028v-15.4582753017h-37.1469934028v-16.7942098239h42.1517605002ZM359.1042745242,1178.6072796422v-77.8514020234h-17.1265121628v77.8514020234h17.1265121628ZM454.4175145486,1178.6072796422l-33.364793737-78.4073020161h-15.7931772848l-33.364737223,78.4073020161h17.4614141459l7.1169779679-17.4609055199h32.9208197277l7.11856036,17.4609055199h17.9049360432ZM423.2769424364,1146.0215031826h-20.6866683099l10.343305898-25.246726716,10.343362412,25.246726716h0ZM535.6064923174,1178.6072796422v-77.8514020234h-16.9044121302v47.9348667071l-36.4797890807-47.9348667071h-15.7931772848v77.8514020234h16.9044686442v-49.4912623558l37.7038823905,49.4912623558h14.569027461ZM622.6888068563,1166.0403737734l-10.8986690076-11.01051022c-3.0398317194,2.8168274627-6.0991042559,5.0420098256-9.1752744793,6.6734560706-3.0776395875,1.629976881-6.8398898101,2.4457565175-11.2892372839,2.4457565175-3.3364737223,0-6.3941638667-.648837271-9.1752744793-1.945381533-2.7806019866-1.297674542-5.1532858979-3.0593855645-7.118164762-5.2835506754-1.963748584-2.2236564848-3.5034160878-4.8194011669-4.6146509332-7.785256056-1.1129302655-2.9659396602-1.6682368612-6.1160019428-1.6682368612-9.4524756651v-.2236259108c0-3.3364737223.5553065957-6.469299234,1.6682368612-9.397402769,1.1112348454-2.9291207871,2.6692694002-5.50497254,4.6708258524-7.7301831599,2.0021215922-2.2236282278,4.3926074145-3.9658701762,7.1737745412-5.2267541021,2.7794717065-1.2598384169,5.8020666549-1.8902803798,9.063489781-1.8902803798,3.9302098402,0,7.4703600301.7779435114,10.6214678218,2.3354129262,3.1517859598,1.5569607888,6.2462667203,3.7070925554,9.2871722057,6.451440809l10.8986690076-12.5684882609c-1.7794564195-1.7800498165-3.7065274154-3.4099984405-5.7836996039-4.8929258851-2.0750811704-1.4834643276-4.3369976354-2.7443482535-6.7831497509-3.7821431517-2.4472823956-1.0377948982-5.171709463-1.8535462777-8.1743549682-2.4472258816-3.0041148693-.5921537258-6.3206956625-.8892478407-9.9543200138-.8892478407-6.0057431225,0-11.4923486115,1.0561619492-16.4603250928,3.1695313568-4.9679199674,2.1139062906-9.2304886605,5.0047388405-12.7905317795,8.6750690368-3.558517241,3.6703301963-6.3391192276,7.9338596275-8.3412408198,12.7905317795-2.0020650782,4.856163526-3.0025889913,10.0645505771-3.0025889913,15.6262914333v.2220152617c0,5.5601019501,1.0005239131,10.7884384443,3.0025889913,15.6814208434,2.0021215922,4.8928128571,4.7827235788,9.1385403772,8.3412408198,12.7337352063,3.5600431191,3.5963816231,7.7858211961,6.4325933889,12.6786905672,8.5081831853,4.8945082772,2.0766070484,10.1958043495,3.1144302036,15.9049619832,3.1144302036,3.7806172736,0,7.1916894802-.315461166,10.2315211996-.9458748719,3.0394361214-.6289443419,5.838913785-1.5564521628,8.397415739-2.7795847345,2.5579368139-1.2241498238,4.9117450482-2.6876364513,7.0619333288-4.3937376946,2.1505838787-1.7049709632,4.225721563-3.6319854452,6.2277301272-5.7826258378h0ZM695.5360916933,1178.6072796422v-15.235666643h-42.2629800586v-16.3490490205h36.7023412254v-15.2372772921h-36.7023412254v-15.7931772848h41.7075604349v-15.236231783h-58.6120290791v77.8514020234h59.1674487027ZM813.4262238934,1178.6072796422v-77.8514020234h-16.9049207562v47.9348667071l-36.4791109127-47.9348667071h-15.7931772848v77.8514020234h16.9043556162v-49.4912623558l37.7038823905,49.4912623558h14.568970947ZM898.7302688069,1144.6870662815v-43.9311886627h-17.1281510689v44.5983929848c0,6.2278996692-1.4829274446,10.8986690076-4.4488953618,14.0131557253-2.9663070012,3.1133564376-7.0803003798,4.6713909924-12.3453709761,4.6713909924-5.2634882042,0-9.3789509469-1.613135708-12.3448058361-4.8378812459-2.9659679172-3.226214902-4.4487823337-8.0271925038-4.4487823337-14.4036109735v-44.041447483h-17.1265686768v44.4865800294c0,11.4929420085,3.0025889913,20.1307118032,9.0083321138,25.913394155,6.0058561506,5.7831344639,14.2353122719,8.6745604108,24.6899507562,8.6745604108,5.189906972,0,9.8979755526-.7223619892,14.1248839096-2.1685553317,4.2262301891-1.4451195764,7.8214250181-3.6319854452,10.7872799073-6.5616148583,2.9659679172-2.9291773011,5.2461949192-6.5795297973,6.8400028381-10.9549004408,1.594712143-4.3742968775,2.3921247284-9.5275262614,2.3921247284-15.4582753017h0ZM994.0419264392,1178.6072796422v-77.8514020234h-18.461881545l-20.4646247912,32.9207349567-20.4629293711-32.9207349567h-18.4624466851v77.8514020234h16.9044686442v-50.4923514089l21.687022681,32.9207349567h.4457824574l21.9102529937-33.2545914307v50.826207883h16.9043556162ZM1071.8944869996,1178.6072796422v-15.235666643h-42.2635451986v-16.3490490205h36.7027933374v-15.2372772921h-36.7027933374v-15.7931772848h41.7076734629v-15.236231783h-58.6121421071v77.8514020234h59.1680138428ZM1045.6462191185,1094.6383215409l14.236781636-13.3459514032-14.570101227-6.3390909706-12.5675840368,19.6850423738h12.9009036278ZM1154.5289234289,1178.6072796422l-19.0183184208-27.8042114179c4.9669027153-1.8535462777,8.9890043247-4.7631979907,12.0666439123-8.7301419329,3.0767353635-3.9669156853,4.6162898393-9.1018345321,4.6162898393-15.4031458915v-.2230890277c0-8.0813611759-2.577377631-14.3837180444-7.7306635289-18.9065619794-5.1531728699-4.5223070519-12.3631163731-6.784251774-21.6320910698-6.784251774h-35.5889023339v77.8514020234h17.1281510689v-24.9118247329h13.4560971955l16.6839510036,24.9118247329h20.0188423338ZM1134.8434006861,1127.5590564976c0,3.3364737223-1.1307321765,6.0057431225-3.3925356135,8.0078364577-2.261012241,2.0021215922-5.505594194,3.0026172483-9.731372271,3.0026172483h-17.3494599056v-22.354311774h17.0156882025c4.226230189,0,7.5260828373.9259819428,9.8980885806,2.7795282205,2.3723448273,1.8545917868,3.559591007,4.6341200073,3.559591007,8.3427666978v.2215631496h0ZM1185.5568066186,1178.6072796422v-77.8514020234h-17.1264556488v77.8514020234h17.1264556488ZM1285.4297094511,1168.819901994l-8.0072430607-6.7832062649c2.2251823629-3.2630620321,3.9300968122-6.784732143,5.1164387678-10.5664231827,1.1858898436-3.7805607596,1.7795129335-7.7107140858,1.7795129335-11.7878603343v-.2236259108c0-5.5601302071-1.0205298702-10.7685172582-3.0593290505-15.6246807842-2.0383470683-4.8577459181-4.8928693711-9.0834674811-8.5632278244-12.6803294732-3.6697933133-3.5952513431-8.0256666258-6.4493497909-13.0671678253-8.5632560814-5.0430835916-2.1133694075-10.5664231827-3.1695313568-16.5721663052-3.1695313568-6.0058561506,0-11.5479583907,1.0561619492-16.6273239724,3.1695313568-5.0782353017,2.1139062906-9.4524191511,5.0047388405-13.1228906325,8.6750690368-3.6702454253,3.6703301963-6.5443215733,7.9338596275-8.6198548556,12.7905317795-2.0750811703,4.856163526-3.1144867176,10.0645505771-3.1144867176,15.6262914333v.2220152617c0,5.5601019501,1.0195126181,10.7684890012,3.0594420785,15.6262066623,2.0386861523,4.856191783,4.8934345111,9.081913346,8.5632278244,12.6788035952,3.6702454253,3.5952513431,8.0261187378,6.4493215338,13.0676199373,8.5632278244,5.0430835916,2.1133976645,10.5664231827,3.1695313568,16.5721663052,3.1695313568,4.3744099055,0,8.4897596202-.5742387868,12.3449188641-1.7233380143,3.8556113559-1.1496643676,7.451936465-2.7994776637,10.7884101873-4.9496659443l8.5633408524,7.6740364977,10.8986124936-12.1233274575h0ZM1266.4119561703,1139.9044274737c0,4.0036780444-.7040514522,7.5621670283-2.1123804125,10.676653746l-12.7901361815-11.5658733297-10.9000818577,12.2330776517,12.6797078192,10.7884101873c-3.1889721739,1.4083854743-6.5994792404,2.1123804125-10.2325384516,2.1123804125-3.4851055508,0-6.6545238796-.648837271-9.5092722384-1.945381533-2.8545223028-1.297674542-5.3385388005-3.0593855645-7.451936465-5.2835506754-2.1121543565-2.2236564848-3.7438266575-4.8194011669-4.8927563431-7.785256056-1.1496078536-2.9659396602-1.7234510423-6.1160019428-1.7234510423-9.4524756651v-.2236259108c0-3.3364737223.5738431887-6.469299234,1.7234510423-9.397402769,1.1489296855-2.9291207871,2.7437548565-5.50497254,4.7825540368-7.7301831599,2.0387991803-2.2236282278,4.4860815759-3.9658701762,7.3402647947-5.2267541021,2.8545223028-1.2598384169,6.0240536596-1.8902803798,9.5090461824-1.8902803798,3.4099419265,0,6.5612757742.648809014,9.4535494312,1.945381533,2.8913694329,1.298154911,5.3936964676,3.0593290505,7.5077723002,5.2834659044,2.1117022445,2.2251823629,3.7432615175,4.8194294239,4.8927563431,7.7853125701,1.1490427135,2.9663917722,1.7234510423,6.1176125919,1.7234510423,9.4540863142v.2220152617h0ZM1366.1745436685,1144.6870662815v-43.9311886627h-17.1280380409v44.5983929848c0,6.2278996692-1.4830404726,10.8986690076-4.4488953618,14.0131557253-2.9664200292,3.1133564376-7.0803003798,4.6713909924-12.3453709761,4.6713909924-5.2634882042,0-9.3788379189-1.613135708-12.3449188641-4.8378812459-2.9658548892-3.226214902-4.4487823338-8.0271925038-4.4487823338-14.4036109735v-44.041447483h-17.1264556488v44.4865800294c0,11.4929420085,3.0027020193,20.1307118032,9.0084451418,25.913394155,6.0058561506,5.7831344639,14.2350862159,8.6745604108,24.6901768123,8.6745604108,5.18945486,0,9.8976364685-.7223619892,14.1249969376-2.1685553317,4.225665049-1.4451195764,7.8210859341-3.6319854452,10.7868277952-6.5616148583,2.9658548892-2.9291773011,5.2466470313-6.5795297973,6.8398898101-10.9549004408,1.594712143-4.3742968775,2.3921247284-9.5275262614,2.3921247284-15.4582753017h0ZM1442.8023327511,1178.6072796422v-15.235666643h-42.2635451986v-16.3490490205h36.7029063654v-15.2372772921h-36.7029063654v-15.7931772848h41.7076734629v-15.236231783h-58.612029079v77.8514020234h59.1679008148ZM1559.9130238188,1166.0403737734l-10.8987255216-11.01051022c-3.0392100653,2.8168274627-6.0986521438,5.0420098256-9.1752744793,6.6734560706-3.0777526155,1.629976881-6.8398898101,2.4457565175-11.2887851719,2.4457565175-3.3364737223,0-6.3946724927-.648837271-9.1751614513-1.945381533-2.7811671266-1.297674542-5.1533989259-3.0593855645-7.118729902-5.2835506754-1.963748584-2.2236564848-3.5034160878-4.8194011669-4.6147074472-7.785256056-1.1121955834-2.9659396602-1.6680673191-6.1160019428-1.6680673191-9.4524756651v-.2236259108c0-3.3364737223.5558717357-6.469299234,1.6680673191-9.397402769,1.1112913594-2.9291207871,2.6692694002-5.50497254,4.6714475064-7.7301831599,2.0014999382-2.2236282278,4.3927204425-3.9658701762,7.1732094011-5.2267541021,2.7795847345-1.2598384169,5.8021796829-1.8902803798,9.063941893-1.8902803798,3.9302098402,0,7.4703600301.7779435114,10.6216938778,2.3354129262,3.1511077917,1.5569607888,6.2460406643,3.7070925554,9.2870591777,6.451440809l10.8986124936-12.5684882609c-1.7801911015-1.7800498165-3.7070925554-3.4099984405-5.7836430899-4.8929258851-2.0756463104-1.4834643276-4.3375627754-2.7443482535-6.7832627789-3.7821431517-2.4472823956-1.0377948982-5.171483407-1.8535462777-8.1746375382-2.4472258816-3.0043974394-.5921537258-6.3207521765-.8892478407-9.9544895558-.8892478407-6.0057431226,0-11.4923486115,1.0561619492-16.4603816069,3.1695313568-4.9678069393,2.1139062906-9.2303191185,5.0047388405-12.7904752655,8.6750690368-3.5578955869,3.6703301963-6.3391757416,7.9338596275-8.3412408198,12.7905317795-2.0014999382,4.856163526-3.0024759633,10.0645505771-3.0024759633,15.6262914333v.2220152617c0,5.5601019501,1.0009760251,10.7884384443,3.0024759633,15.6814208434,2.0020650782,4.8928128571,4.7833452328,9.1385403772,8.3412408198,12.7337352063,3.5601561471,3.5963816231,7.7858211961,6.4325933889,12.6786905672,8.5081831853,4.8944517632,2.0766070484,10.1963694896,3.1144302036,15.9049619832,3.1144302036,3.7805607596,0,7.1921981062-.315461166,10.2315211996-.9458748719,3.0400012614-.6289443419,5.838800757-1.5564521628,8.397980879-2.7795847345,2.5573716739-1.2241498238,4.9111799081-2.6876364513,7.0618768148-4.3937376946,2.1501317666-1.7049709632,4.225778077-3.6319854452,6.2272780152-5.7826258378h0ZM1649.4434119493,1178.6072796422l-33.3655284191-78.4073020161h-15.7931772848l-33.364850251,78.4073020161h17.46147066l7.1169214539-17.4609055199h32.9207632137l7.118729902,17.4609055199h17.9056707253ZM1618.3020486411,1146.0215031826h-20.6866117959l10.343305898-25.246726716,10.3433058979,25.246726716h0ZM1730.631655036,1178.6072796422v-77.8514020234h-16.9044686442v47.9348667071l-36.4797890807-47.9348667071h-15.7931772848v77.8514020234h16.9044686442v-49.4912623558l37.7038823905,49.4912623558h14.569083975ZM1825.165793012,1178.6072796422l-33.364737223-78.4073020161h-15.7931772848l-33.3654153911,78.4073020161h17.461696716l7.1169214539-17.4609055199h32.9212153257l7.118051734,17.4609055199h17.9054446693ZM1794.0247687878,1146.0215031826h-20.6861596839l10.3431928699-25.246726716,10.3429668139,25.246726716h0ZM1908.9118598846,1139.6824122121v-.2236259108c0-5.4866620029-1.0005239131-10.5832360986-3.0027020193-15.2913611932-2.0021781062-4.7091706036-4.8378247319-8.8047121602-8.5080701573-12.289761197s-8.0444292748-6.2094478472-13.1230036605-8.1742701972c-5.0792525537-1.9653592331-10.6580888959-2.9475160951-16.7385435307-2.9475160951h-30.3620352038v77.8514020234h30.3620352038c6.0804546348,0,11.659290977-1.0005239131,16.7385435307-3.0025889913,5.0785743857-2.0021781062,9.4527582352-4.7443505706,13.1230036605-8.2293996074s6.5058920511-7.6005682935,8.5080701573-12.3454274901c2.0021781062-4.7458764487,3.0027020193-9.8618913615,3.0027020193-15.3474513414h0ZM1891.0059631033,1139.9044274737c0,3.4845121537-.5750864968,6.6362133425-1.7229989303,9.4535211742-1.1490427135,2.8163188366-2.7438678845,5.2636012322-4.7826670648,7.3402082807-2.0383470683,2.0754767684-4.5039400009,3.6703584533-7.3970048539,4.7815932987-2.8908042929,1.1128737515-6.0793243547,1.6682368612-9.5637517375,1.6682368612h-13.2342232189v-46.9327886589h13.2342232189c3.4844273827,0,6.6729474446.5742670438,9.5637517375,1.7233945283,2.893064853,1.1495795966,5.3586577856,2.7626870476,7.3970048539,4.8377682179,2.0387991803,2.0771439315,3.6336243512,4.5611321722,4.7826670648,7.451964722,1.1479124335,2.8913129189,1.7229989303,6.0425054816,1.7229989303,9.4540863142v.2220152617h0ZM1999.999321832,1178.6072796422l-33.364737223-78.4073020161h-15.7931772848l-33.364737223,78.4073020161h17.4612446039l7.1173735659-17.4609055199h32.9205371577l7.118503846,17.4609055199h17.9049925572ZM1968.8587497198,1146.0215031826h-20.6866117959l10.3431928699-25.246726716,10.343418926,25.246726716h0Z"/><polygon class="b" points="1001.6540235893 0 926.082481227 174.5480200757 848.4367619183 91.7999905 848.4415090946 309.8650363658 886.8085267989 348.2319410421 886.8085267989 188.6360568552 938.7296369803 243.9542237704 980.819345105 142.3133368611 980.819345105 442.2476195525 999.9059324416 461.3342068891 1000.1091567972 461.3342068891 1019.1909969576 442.2523667288 1019.1909969576 142.3133368611 1061.2854522585 243.9542237704 1113.2019282917 188.6360568552 1113.2019282917 348.2413223666 1151.568832968 309.869670514 1151.568832968 140.22525747 1151.568832968 91.7953563517 1073.9279738636 174.5480200757 1001.6540235893 0 1001.6540235893 0"/><polygon class="c" points="0 1045.0210047009 1999.9988697199 1045.0210047009 1999.9988697199 1055.5753338868 0 1055.5753338868 0 1045.0210047009 0 1045.0210047009"/><path class="c" d="M834.1879993136,716.008063305c19.2472001338,0,34.8565938801,15.6094502603,34.8565938801,34.8566503941,0,19.2425094715-15.6093937463,34.8520162459-34.8565938801,34.8520162459-19.2425659855,0-34.8519597319-15.6095067743-34.8519597319-34.8520162459,0-2.3338587911.2219870047-4.6062303467.6614398937-6.803155708l.0423855024-.2125491661-307.6727451527-307.6722365267,113.4188572931,3.6141835341-72.321195981-174.5295965106,176.8633987878,69.9878458159-3.6094363579-113.4193094051,346.2329277201,346.2381270084-27.1322599196,27.1322599196-277.7621438067-277.7620307787,2.4047838652,75.8313937492-54.5481071073-22.6016453091,274.80465299,274.8093436523c7.9323054924,7.9229241679,11.6739846178,10.0015657205,16.3559437289,5.3244668137h.0046341483c3.0283593767-3.033050039,7.9891585797-3.0378537293,11.0221521047-.0047471763l31.417264672,31.4220118482c3.0377407013,3.0378537293,3.0377407013,7.9937362139,0,11.0267862529v.0046906623c-3.033106553,3.033106553-7.9936796999,3.033106553-11.0220390767,0l-22.9701166102-22.9606222576-4.4644932266,4.4646627687-49.1528282475,49.1573493678-302.2396584248-302.2391497988,24.1327226845,58.2566690268-75.827155199-2.4095310414,239.1972140631,239.1968184651c2.2676808933-.4630192284,4.610977523-.7086856004,7.0157613882-.7086856004h0ZM1050.3721461241,725.1308927893l3.2552065857,3.2550935577c4.8375986759,4.8378247319,4.8375986759,12.7606358718,0,17.60320778l-36.0237210747,36.0188608704c-4.8425719082,4.8425153942-12.7606358718,4.8425153942-17.603094752,0l-3.2552065857-3.2550935577c-4.8378247319-4.8425719082-4.8378247319-12.7606923858,0-17.60320778l36.0237210747-36.0188608704c4.8377117039-4.8424588802,12.7606358718-4.8424588802,17.603094752,0h0ZM834.1879993136,735.3025656595c8.5983795344,0,15.5668952159,6.9684591675,15.5668952159,15.5621480396,0,8.5984925624-6.9685156815,15.5668952159-15.5668952159,15.5668952159-8.5936323582,0-15.5622610676-6.9684026535-15.5622610676-15.5668952159,0-8.5936888722,6.9686287095-15.5621480396,15.5622610676-15.5621480396h0Z"/><path class="d" d="M1165.8130744525,716.008063305c2.4045578091,0,4.7478544388.2409757097,7.0156483601.7086856004l239.1973270911-239.1968184651-75.827324741,2.4095310414,24.1327226845-58.2566690268-302.2396019108,302.2391497988-3.2504594094-3.2503463814-.0046341483-.0046906623h-.0237358814c-3.6566820646-3.6566820646-8.4612765626-5.4803324346-13.2424742633-5.4803324346-4.8094547023,0-9.6189094046,1.8283410323-13.2708442929,5.4803324346v.0046906623l-36.0236080467,36.0188608704h0c-3.6566820646,3.6566820646-5.4803889486,8.4661932809-5.4803889486,13.2708442929,0,4.80476404,1.823706884,9.6189094046,5.4803889486,13.2709008069v.0046906623l2.0267051836,2.0220710353c-4.1243919552,1.0487868718-8.6928709478-.0283700296-11.905352947-3.2409085429l-36.0237210747-36.0188608704c-4.8378247319-4.8425719082-4.8378247319-12.7653830481,0-17.60320778l49.1574623958-49.1574623958,1.0771569014,1.0725227532,17.4141119252,17.4188591015c2.7449981646,2.7496323128,6.3686760513,4.1291391315,9.9827465574,4.1291391315,3.6188176824,0,7.2377483928-1.3795068187,9.9826335294-4.1291391315l.0048602043-.0048036903c2.7447721086-2.7448286226,4.1242789272-6.3683934812,4.1242789272-9.9778863531,0-3.6141270201-1.3795068187-7.2378049068-4.1242789272-9.9874372197l-17.4143379813-17.4141119253c-.3637241247-.3637806387-.7415767503-.7039384241-1.1337839327-1.0204733562l288.6423327353-288.6471929396-54.5478810513,22.6016453091,2.4045578091-75.8313937492-197.924246313,197.9194991367-27.1322599195-27.1322599195,266.3951432544-266.3955953664-3.6093233299,113.4193094051,176.8632857598-69.9878458159-72.321195981,174.5295965106,113.4187442651-3.6141835341-307.6727451527,307.6722365267-.0047471763-.0048036903c.4629627144,2.2631032591.7087986284,4.6157812133.7087986284,7.0158179022,0,19.2519473101-15.604872626,34.8567069081-34.8519597318,34.8567069081-19.2520603381,0-34.8568199361-15.604759598-34.8568199361-34.8567069081,0-19.2472566478,15.604759598-34.8519597319,34.8568199361-34.8519597319h0ZM1165.8130744525,735.3025656595c-8.5984925624,0-15.5670082439,6.9684591675-15.5670082439,15.5621480396,0,8.5984925624,6.9685156815,15.5668952159,15.5670082439,15.5668952159,8.5935193301,0,15.5621480396-6.9684026535,15.5621480396-15.5668952159,0-8.5936888722-6.9686287095-15.5621480396-15.5621480396-15.5621480396h0Z"/></svg>